<svg xmlns="http://www.w3.org/2000/svg" width="1779" height="304" viewBox="0 0 1779 304" fill="none"><mask id="mask0_33_244" style="mask-type:luminance" maskUnits="userSpaceOnUse" x="529" y="238" width="744" height="66"><path d="M1273 238H529V303.333H1273V238Z" fill="white"></path></mask><g mask="url(#mask0_33_244)"><path d="M539.88 250.568V289.339H533.942V250.568H539.88Z" fill="#B5613A"></path><path d="M590.738 289.339V250.568H599.363L607.884 272.923C608.118 273.563 608.389 274.381 608.697 275.381C609.014 276.381 609.332 277.459 609.655 278.61C609.988 279.751 610.306 280.87 610.613 281.964C610.915 283.048 611.176 284.016 611.384 284.86H610.113C610.332 284.042 610.592 283.089 610.884 282.006C611.176 280.923 611.488 279.813 611.822 278.673C612.155 277.521 612.473 276.438 612.78 275.423C613.098 274.412 613.374 273.579 613.613 272.923L621.988 250.568H630.634V289.339H624.78V268.423C624.78 267.605 624.785 266.652 624.801 265.568C624.827 264.475 624.853 263.318 624.884 262.11C624.926 260.891 624.952 259.662 624.967 258.423C624.993 257.173 625.02 255.98 625.051 254.839H625.572C625.181 256.12 624.78 257.417 624.363 258.735C623.957 260.042 623.561 261.308 623.176 262.527C622.785 263.751 622.415 264.87 622.072 265.881C621.723 266.896 621.431 267.745 621.197 268.423L613.197 289.339H608.176L600.113 268.423C599.848 267.756 599.551 266.933 599.217 265.943C598.884 264.943 598.514 263.839 598.113 262.631C597.723 261.412 597.311 260.141 596.884 258.818C596.467 257.485 596.051 256.162 595.634 254.839H596.259C596.27 255.912 596.29 257.058 596.322 258.277C596.348 259.485 596.374 260.709 596.405 261.943C596.431 263.167 596.457 264.339 596.488 265.464C596.514 266.589 596.53 267.579 596.53 268.423V289.339H590.738Z" fill="#B5613A"></path><path d="M681.519 289.339V250.568H690.144L698.664 272.923C698.899 273.563 699.17 274.381 699.477 275.381C699.795 276.381 700.112 277.459 700.435 278.61C700.769 279.751 701.086 280.87 701.394 281.964C701.696 283.048 701.956 284.016 702.164 284.86H700.894C701.112 284.042 701.373 283.089 701.664 282.006C701.956 280.923 702.269 279.813 702.602 278.673C702.935 277.521 703.253 276.438 703.56 275.423C703.878 274.412 704.154 273.579 704.394 272.923L712.769 250.568H721.414V289.339H715.56V268.423C715.56 267.605 715.565 266.652 715.581 265.568C715.607 264.475 715.633 263.318 715.664 262.11C715.706 260.891 715.732 259.662 715.748 258.423C715.774 257.173 715.8 255.98 715.831 254.839H716.352C715.961 256.12 715.56 257.417 715.144 258.735C714.737 260.042 714.341 261.308 713.956 262.527C713.565 263.751 713.196 264.87 712.852 265.881C712.503 266.896 712.211 267.745 711.977 268.423L703.977 289.339H698.956L690.894 268.423C690.628 267.756 690.331 266.933 689.998 265.943C689.664 264.943 689.295 263.839 688.894 262.631C688.503 261.412 688.091 260.141 687.664 258.818C687.248 257.485 686.831 256.162 686.414 254.839H687.039C687.05 255.912 687.071 257.058 687.102 258.277C687.128 259.485 687.154 260.709 687.185 261.943C687.211 263.167 687.237 264.339 687.269 265.464C687.295 266.589 687.31 267.579 687.31 268.423V289.339H681.519Z" fill="#B5613A"></path><path d="M788.549 289.881C785.158 289.881 782.137 289.078 779.486 287.464C776.845 285.854 774.762 283.563 773.236 280.589C771.705 277.604 770.944 274.068 770.944 269.985C770.944 265.875 771.705 262.328 773.236 259.339C774.762 256.354 776.845 254.058 779.486 252.443C782.137 250.834 785.158 250.026 788.549 250.026C791.908 250.026 794.908 250.834 797.549 252.443C800.2 254.058 802.283 256.354 803.799 259.339C805.325 262.328 806.09 265.875 806.09 269.985C806.09 274.068 805.325 277.604 803.799 280.589C802.283 283.563 800.2 285.854 797.549 287.464C794.908 289.078 791.908 289.881 788.549 289.881ZM788.549 284.506C790.741 284.506 792.72 283.953 794.486 282.839C796.246 281.729 797.637 280.089 798.653 277.922C799.679 275.756 800.194 273.11 800.194 269.985C800.194 266.818 799.679 264.151 798.653 261.985C797.637 259.818 796.246 258.183 794.486 257.068C792.72 255.959 790.741 255.401 788.549 255.401C786.325 255.401 784.325 255.964 782.549 257.089C780.783 258.203 779.382 259.849 778.34 262.026C777.309 264.193 776.799 266.849 776.799 269.985C776.799 273.11 777.309 275.756 778.34 277.922C779.382 280.078 780.783 281.714 782.549 282.839C784.325 283.953 786.325 284.506 788.549 284.506Z" fill="#B5613A"></path><path d="M855.585 289.339V250.568H869.939C872.674 250.568 874.95 251.021 876.772 251.923C878.59 252.813 879.96 254.021 880.877 255.548C881.804 257.063 882.272 258.792 882.272 260.735C882.272 262.334 881.981 263.688 881.397 264.798C880.814 265.896 880.028 266.792 879.043 267.485C878.054 268.167 876.944 268.667 875.71 268.985V269.298C877.043 269.412 878.319 269.839 879.543 270.589C880.778 271.339 881.793 272.412 882.585 273.798C883.377 275.173 883.772 276.839 883.772 278.798C883.772 280.813 883.293 282.62 882.335 284.214C881.387 285.813 879.939 287.068 877.981 287.985C876.033 288.891 873.549 289.339 870.522 289.339H855.585ZM861.502 284.298H869.96C872.71 284.298 874.715 283.766 875.981 282.693C877.241 281.626 877.877 280.251 877.877 278.568C877.877 277.318 877.564 276.193 876.939 275.193C876.325 274.193 875.444 273.412 874.293 272.839C873.153 272.256 871.783 271.964 870.189 271.964H861.502V284.298ZM861.502 267.318H869.481C870.814 267.318 872.007 267.079 873.064 266.589C874.116 266.089 874.944 265.391 875.543 264.485C876.137 263.568 876.439 262.495 876.439 261.256C876.439 259.62 875.866 258.266 874.731 257.193C873.59 256.126 871.887 255.589 869.627 255.589H861.502V267.318Z" fill="#B5613A"></path><path d="M938.979 250.568V289.339H933.042V250.568H938.979Z" fill="#B5613A"></path><path d="M989.838 289.339V250.568H995.775V284.235H1013.46V289.339H989.838Z" fill="#B5613A"></path><path d="M1068.29 250.568V289.339H1062.35V250.568H1068.29Z" fill="#B5613A"></path><path d="M1119.15 289.339V250.568H1143.96V255.673H1125.08V267.193H1142.61V272.235H1125.08V284.235H1144.08V289.339H1119.15Z" fill="#B5613A"></path><path d="M1193.77 289.339V250.568H1200.54L1215.16 273.735C1215.63 274.443 1216.16 275.313 1216.75 276.339C1217.34 277.37 1217.98 278.521 1218.64 279.798C1219.31 281.079 1219.96 282.438 1220.6 283.881L1219.89 284.152C1219.78 282.792 1219.68 281.402 1219.6 279.985C1219.52 278.558 1219.46 277.214 1219.43 275.964C1219.42 274.714 1219.41 273.683 1219.41 272.86V250.568H1225.37V289.339H1218.58L1205.46 268.631C1204.83 267.605 1204.18 266.527 1203.52 265.402C1202.85 264.277 1202.1 262.975 1201.27 261.485C1200.44 259.985 1199.48 258.204 1198.35 256.131L1199.27 255.881C1199.36 257.798 1199.44 259.584 1199.52 261.235C1199.59 262.891 1199.64 264.35 1199.68 265.61C1199.74 266.86 1199.77 267.86 1199.77 268.61V289.339H1193.77Z" fill="#B5613A"></path></g><mask id="mask1_33_244" style="mask-type:luminance" maskUnits="userSpaceOnUse" x="232" y="0" width="1339" height="200"><path d="M1570.79 0H232.125V200H1570.79V0Z" fill="white"></path></mask><g mask="url(#mask1_33_244)"><path d="M352.271 48.6162C352.49 48.6162 352.604 48.9443 352.604 49.5954C352.604 50.2516 352.49 50.5745 352.271 50.5745C347.88 50.5745 344.422 52.3037 341.896 55.762C339.38 59.21 338.125 63.8402 338.125 69.6579V153.825C338.125 154.158 337.875 154.377 337.375 154.491C336.885 154.601 336.531 154.543 336.313 154.325L259.208 66.5329V130.491C259.208 136.299 260.406 140.903 262.813 144.304C265.229 147.694 268.573 149.387 272.854 149.387C273.073 149.387 273.188 149.72 273.188 150.387C273.188 151.043 273.073 151.366 272.854 151.366C269.781 151.366 267.427 151.314 265.792 151.2L256.917 151.033L246.708 151.2C244.844 151.314 242.167 151.366 238.667 151.366C238.333 151.366 238.167 151.043 238.167 150.387C238.167 149.72 238.333 149.387 238.667 149.387C243.484 149.387 247.292 147.694 250.083 144.304C252.875 140.903 254.271 136.299 254.271 130.491V60.9287C250.656 56.986 247.563 54.2777 244.979 52.8037C242.406 51.3193 239.755 50.5745 237.021 50.5745C236.797 50.5745 236.688 50.2516 236.688 49.5954C236.688 48.9443 236.797 48.6162 237.021 48.6162L243.917 48.762C245.344 48.8766 247.427 48.9287 250.167 48.9287L262.667 48.762C264.193 48.6683 266.052 48.6162 268.25 48.6162C269.125 48.6162 269.776 48.8402 270.208 49.2829C270.651 49.7152 271.422 50.637 272.521 52.0537C274.38 54.585 275.698 56.2829 276.479 57.1579L333.354 122.762V69.6579C333.354 63.7412 332.146 59.085 329.729 55.6787C327.323 52.2777 323.984 50.5745 319.708 50.5745C319.5 50.5745 319.396 50.2516 319.396 49.5954C319.396 48.9443 319.5 48.6162 319.708 48.6162L326.792 48.762C330.292 48.986 333.25 49.0954 335.667 49.0954C337.859 49.0954 340.927 48.986 344.875 48.762L352.271 48.6162Z" fill="#1C3347"></path><path d="M438.421 153.345C428.238 153.345 419.171 150.965 411.212 146.2C403.264 141.424 397.129 134.95 392.796 126.783C388.473 118.616 386.316 109.715 386.316 100.075C386.316 88.7829 389.16 79.111 394.858 71.0537C400.551 63.0016 407.863 56.9443 416.796 52.887C425.738 48.835 434.868 46.8037 444.191 46.8037C454.592 46.8037 463.738 49.2412 471.629 54.1162C479.53 58.9912 485.592 65.4287 489.816 73.4287C494.035 81.4287 496.15 89.9235 496.15 98.9079C496.15 108.897 493.514 118.054 488.254 126.387C482.988 134.71 475.941 141.283 467.108 146.116C458.285 150.939 448.723 153.345 438.421 153.345ZM443.858 149.22C449.993 149.22 455.504 147.444 460.379 143.887C465.254 140.319 469.056 135.111 471.796 128.262C474.546 121.418 475.921 113.22 475.921 103.679C475.921 93.5954 474.384 84.585 471.316 76.637C468.243 68.6943 463.801 62.4808 457.983 57.9912C452.176 53.4912 445.384 51.2412 437.608 51.2412C427.634 51.2412 419.962 55.0016 414.587 62.512C409.212 70.012 406.525 80.5068 406.525 93.9912C406.525 104.616 408.139 114.127 411.379 122.512C414.613 130.903 419.051 137.45 424.691 142.158C430.342 146.866 436.733 149.22 443.858 149.22Z" fill="#1C3347"></path><path d="M644.627 149.387C644.835 149.387 644.939 149.72 644.939 150.387C644.939 151.043 644.835 151.366 644.627 151.366H615.356C612.939 151.366 608.439 147.012 601.856 138.304C595.283 129.585 587.34 117.387 578.022 101.72C577.147 101.835 575.887 101.887 574.252 101.887C569.97 101.887 566.96 101.835 565.21 101.72V138.054C565.21 141.444 565.481 143.908 566.022 145.45C566.575 146.981 567.647 148.022 569.231 148.575C570.814 149.116 573.361 149.387 576.877 149.387C577.095 149.387 577.21 149.72 577.21 150.387C577.21 151.043 577.095 151.366 576.877 151.366C573.262 151.366 570.418 151.314 568.335 151.2L555.835 151.033L543.835 151.2C541.637 151.314 538.679 151.366 534.96 151.366C534.627 151.366 534.46 151.043 534.46 150.387C534.46 149.72 534.627 149.387 534.96 149.387C538.46 149.387 541.002 149.116 542.585 148.575C544.179 148.022 545.278 146.95 545.877 145.366C546.486 143.783 546.793 141.345 546.793 138.054V61.9287C546.793 58.637 546.512 56.2308 545.96 54.6995C545.418 53.1579 544.319 52.0902 542.668 51.4912C541.028 50.8818 538.507 50.5745 535.106 50.5745C534.897 50.5745 534.793 50.2516 534.793 49.5954C534.793 48.9443 534.897 48.6162 535.106 48.6162L543.835 48.762C548.877 48.986 552.877 49.0954 555.835 49.0954C559.554 49.0954 563.444 48.9391 567.502 48.6162C568.929 48.5068 570.715 48.3975 572.856 48.2829C574.991 48.1735 577.377 48.1162 580.002 48.1162C589.97 48.1162 597.694 49.96 603.168 53.637C608.653 57.3037 611.397 62.4235 611.397 68.9912C611.397 75.0225 609.752 80.4808 606.46 85.3662C603.179 90.2412 598.799 94.1579 593.314 97.1162C602.09 110.272 609.439 120.575 615.356 128.033C621.272 135.481 626.528 140.903 631.127 144.304C635.736 147.694 640.236 149.387 644.627 149.387ZM565.21 97.1162C567.835 97.5485 571.007 97.762 574.731 97.762C581.09 97.762 585.668 95.986 588.46 92.4287C591.262 88.861 592.668 83.1318 592.668 75.2412C592.668 66.2568 591.345 60.0693 588.71 56.6787C586.085 53.2777 582.304 51.5745 577.377 51.5745C572.986 51.5745 569.861 52.3975 568.002 54.0329C566.137 55.6735 565.21 58.4183 565.21 62.262V97.1162Z" fill="#1C3347"></path><path d="M720.589 152.032C717.073 152.032 712.907 151.866 708.089 151.532C706.339 151.418 704.172 151.313 701.589 151.199C699.016 151.09 696.141 151.032 692.964 151.032L680.797 151.199C678.599 151.313 675.641 151.366 671.922 151.366C671.698 151.366 671.589 151.043 671.589 150.386C671.589 149.72 671.698 149.386 671.922 149.386C675.422 149.386 677.99 149.116 679.631 148.574C681.282 148.022 682.407 146.949 683.006 145.366C683.615 143.782 683.922 141.345 683.922 138.053V61.9281C683.922 58.6364 683.615 56.2301 683.006 54.6989C682.407 53.1572 681.308 52.0895 679.714 51.4906C678.131 50.8812 675.641 50.5739 672.256 50.5739C671.922 50.5739 671.756 50.251 671.756 49.5947C671.756 48.9437 671.922 48.6156 672.256 48.6156L680.964 48.7614C686.006 48.9854 690.006 49.0947 692.964 49.0947C697.464 49.0947 702.068 48.9385 706.776 48.6156C712.469 48.3968 716.302 48.2822 718.276 48.2822C729.344 48.2822 739.177 50.4801 747.776 54.8656C756.386 59.2406 763.047 65.2145 767.756 72.7822C772.474 80.3395 774.839 88.8343 774.839 98.2614C774.839 108.886 772.401 118.282 767.526 126.449C762.651 134.616 756.073 140.923 747.797 145.366C739.516 149.813 730.448 152.032 720.589 152.032ZM718.943 148.241C725.953 148.241 732.141 146.465 737.506 142.907C742.881 139.34 747.073 134.048 750.089 127.032C753.099 120.022 754.61 111.636 754.61 101.886C754.61 92.5687 753.183 84.1051 750.339 76.4906C747.49 68.8656 743.433 62.8604 738.172 58.4697C732.907 54.0843 726.823 51.8864 719.922 51.8864C713.131 51.8864 708.469 52.5479 705.943 53.8656C703.427 55.1885 702.172 57.9854 702.172 62.2614V136.241C702.172 140.631 703.318 143.73 705.61 145.532C707.912 147.34 712.36 148.241 718.943 148.241Z" fill="#1C3347"></path><path d="M874.494 52.7201C874.811 52.168 874.942 51.8138 874.89 51.6576C874.832 51.4909 874.421 51.4076 873.66 51.4076C861.16 51.4076 851.645 51.8763 845.119 52.8034C838.603 53.7357 833.265 55.7096 829.098 58.7201C824.942 61.7357 821.332 66.4232 818.265 72.7826C818.15 72.8971 817.931 72.9492 817.598 72.9492C816.608 72.9492 816.171 72.7305 816.285 72.2826L822.869 43.6784C822.869 43.569 823.082 43.5117 823.515 43.5117C824.608 43.5117 825.046 43.6784 824.827 44.0117C824.712 44.3346 824.66 44.7721 824.66 45.3242C824.66 46.6315 825.291 47.5065 826.556 47.9492C827.817 48.3971 830.369 48.6159 834.202 48.6159H894.223C894.765 48.6159 895.171 48.8867 895.452 49.4284C895.728 49.9701 895.702 50.4076 895.369 50.7409L838.473 146.928C838.041 147.47 837.874 147.824 837.973 147.991C838.082 148.158 838.473 148.241 839.14 148.241H872.348C876.291 148.241 880.124 147.23 883.848 145.199C887.582 143.173 890.765 140.465 893.39 137.074C896.025 133.673 897.671 130.053 898.327 126.22C898.436 125.887 898.765 125.72 899.306 125.72C899.858 125.72 900.14 125.887 900.14 126.22L897.827 150.053C897.827 150.387 897.686 150.751 897.41 151.137C897.145 151.512 896.791 151.699 896.348 151.699C880.015 151.475 853.765 151.366 817.598 151.366C817.15 151.366 816.817 151.126 816.598 150.637C816.39 150.137 816.452 149.668 816.785 149.22L874.494 52.7201Z" fill="#1C3347"></path><path d="M1033.14 48.6162C1033.36 48.6162 1033.48 48.9443 1033.48 49.5954C1033.48 50.2516 1033.36 50.5745 1033.14 50.5745C1029.75 50.5745 1025.59 52.6891 1020.66 56.9079C1015.73 61.1318 1011.34 66.4235 1007.5 72.7829L990.414 101.387V138.054C990.414 141.444 990.685 143.908 991.227 145.45C991.768 146.981 992.831 148.022 994.414 148.575C996.008 149.116 998.565 149.387 1002.08 149.387C1002.41 149.387 1002.58 149.72 1002.58 150.387C1002.58 151.043 1002.41 151.366 1002.08 151.366C998.456 151.366 995.607 151.314 993.539 151.2L981.206 151.033L969.039 151.2C966.841 151.314 963.878 151.366 960.143 151.366C959.935 151.366 959.831 151.043 959.831 150.387C959.831 149.72 959.935 149.387 960.143 149.387C963.654 149.387 966.232 149.116 967.872 148.575C969.523 148.022 970.648 146.95 971.247 145.366C971.857 143.783 972.164 141.345 972.164 138.054V104.845L948.143 67.512C944.086 61.1527 940.716 56.7412 938.039 54.2829C935.357 51.8141 933.081 50.5745 931.206 50.5745C930.883 50.5745 930.727 50.2516 930.727 49.5954C930.727 48.9443 930.883 48.6162 931.206 48.6162L936.31 48.762C938.727 48.986 940.424 49.0954 941.414 49.0954C945.247 49.0954 950.779 48.986 958.018 48.762L968.872 48.6162C969.091 48.6162 969.206 48.9443 969.206 49.5954C969.206 50.2516 969.091 50.5745 968.872 50.5745C967.008 50.5745 965.56 51.012 964.518 51.887C963.477 52.762 962.956 53.9183 962.956 55.3454C962.956 57.0954 963.716 59.1787 965.247 61.5954L987.768 97.1162L1002.89 71.3037C1005.85 66.361 1007.33 62.137 1007.33 58.637C1007.33 56.012 1006.54 54.012 1004.96 52.637C1003.37 51.262 1001.1 50.5745 998.143 50.5745C997.81 50.5745 997.643 50.2516 997.643 49.5954C997.643 48.9443 997.81 48.6162 998.143 48.6162L1006.85 48.762C1011.89 48.986 1016.38 49.0954 1020.33 49.0954C1022.19 49.0954 1024.43 48.986 1027.06 48.762L1033.14 48.6162Z" fill="#1C3347"></path><path d="M1091.7 137.387C1091.7 140.903 1092.08 143.46 1092.85 145.054C1093.61 146.637 1095.06 147.757 1097.2 148.408C1099.34 149.064 1102.76 149.387 1107.47 149.387C1107.8 149.387 1107.97 149.72 1107.97 150.387C1107.97 151.043 1107.8 151.366 1107.47 151.366C1102.98 151.366 1099.48 151.314 1096.95 151.2L1082.66 151.033L1070.64 151.2C1068.46 151.314 1065.5 151.366 1061.76 151.366C1061.44 151.366 1061.28 151.043 1061.28 150.387C1061.28 149.72 1061.44 149.387 1061.76 149.387C1065.27 149.387 1067.82 149.116 1069.41 148.575C1071 148.022 1072.07 146.95 1072.62 145.366C1073.17 143.783 1073.45 141.345 1073.45 138.054V61.9287C1073.45 58.637 1073.17 56.2308 1072.62 54.6995C1072.07 53.1579 1070.98 52.0902 1069.32 51.4912C1067.68 50.8818 1065.16 50.5745 1061.76 50.5745C1061.44 50.5745 1061.28 50.2516 1061.28 49.5954C1061.28 48.9443 1061.44 48.6162 1061.76 48.6162L1070.49 48.762C1075.53 48.986 1079.53 49.0954 1082.49 49.0954C1085.12 49.0954 1088.24 48.9391 1091.87 48.6162C1093.28 48.5068 1095.09 48.3975 1097.28 48.2829C1099.48 48.1735 1102 48.1162 1104.85 48.1162C1116.02 48.1162 1124.85 50.4495 1131.3 55.1162C1137.77 59.7725 1141.01 66.9704 1141.01 76.7204C1141.01 83.512 1139.25 89.2725 1135.74 93.9912C1132.24 98.6995 1127.72 102.262 1122.18 104.679C1116.65 107.085 1110.98 108.283 1105.18 108.283C1102.22 108.283 1099.64 108.012 1097.45 107.47C1097.23 107.47 1097.12 107.194 1097.12 106.637C1097.12 106.319 1097.2 105.991 1097.37 105.658C1097.53 105.325 1097.73 105.215 1097.95 105.325C1099.59 105.772 1101.45 105.991 1103.53 105.991C1108.57 105.991 1112.76 103.637 1116.1 98.9287C1119.44 94.21 1121.12 87.5225 1121.12 78.8662C1121.12 70.1995 1119.28 63.512 1115.62 58.8037C1111.95 54.085 1106.6 51.7204 1099.57 51.7204C1096.52 51.7204 1094.44 52.4391 1093.35 53.8662C1092.25 55.2985 1091.7 58.0954 1091.7 62.262V137.387Z" fill="#1C3347"></path><path d="M1252.65 125.22C1252.65 125.002 1252.87 124.887 1253.32 124.887C1253.65 124.887 1253.95 124.97 1254.22 125.137C1254.49 125.304 1254.63 125.444 1254.63 125.554C1253.53 134.111 1252.99 141.897 1252.99 148.908C1252.99 149.783 1252.82 150.418 1252.49 150.804C1252.16 151.179 1251.51 151.366 1250.53 151.366H1177.86C1177.53 151.366 1177.36 151.043 1177.36 150.387C1177.36 149.72 1177.53 149.387 1177.86 149.387C1181.36 149.387 1183.9 149.116 1185.49 148.575C1187.08 148.022 1188.15 146.95 1188.7 145.366C1189.25 143.783 1189.53 141.345 1189.53 138.054V61.9287C1189.53 58.637 1189.25 56.2308 1188.7 54.6995C1188.15 53.1579 1187.06 52.0902 1185.4 51.4912C1183.76 50.8818 1181.25 50.5745 1177.86 50.5745C1177.53 50.5745 1177.36 50.2516 1177.36 49.5954C1177.36 48.9443 1177.53 48.6162 1177.86 48.6162H1247.57C1248.66 48.6162 1249.22 49.111 1249.22 50.0954L1249.53 71.9495C1249.53 72.1735 1249.23 72.3402 1248.63 72.4495C1248.03 72.5641 1247.68 72.4495 1247.57 72.1162C1245.82 65.7568 1242.86 61.0433 1238.7 57.9704C1234.53 54.9027 1229.04 53.3662 1222.24 53.3662H1217.32C1214.03 53.3662 1211.61 54.085 1210.07 55.512C1208.54 56.9443 1207.78 59.137 1207.78 62.0954V95.637H1221.42C1227.78 95.637 1232.66 94.5433 1236.05 92.3454C1239.45 90.1527 1241.15 87.085 1241.15 83.137C1241.15 82.8037 1241.45 82.637 1242.05 82.637C1242.66 82.637 1242.97 82.8037 1242.97 83.137L1242.8 97.9287L1242.97 105.825C1243.19 109.549 1243.3 112.507 1243.3 114.7C1243.3 114.924 1242.97 115.033 1242.3 115.033C1241.64 115.033 1241.32 114.924 1241.32 114.7C1241.32 110.215 1239.59 106.689 1236.13 104.116C1232.69 101.533 1227.73 100.241 1221.26 100.241H1207.78V137.387C1207.78 140.569 1208.38 142.929 1209.59 144.47C1210.8 146.002 1212.72 146.762 1215.34 146.762H1220.76C1229.31 146.762 1236.16 145.012 1241.32 141.512C1246.47 138.002 1250.25 132.569 1252.65 125.22Z" fill="#1C3347"></path><path d="M1402.3 149.387C1402.51 149.387 1402.61 149.72 1402.61 150.387C1402.61 151.043 1402.51 151.366 1402.3 151.366H1373.03C1370.61 151.366 1366.11 147.012 1359.53 138.304C1352.95 129.585 1345.01 117.387 1335.69 101.72C1334.82 101.835 1333.56 101.887 1331.92 101.887C1327.64 101.887 1324.63 101.835 1322.88 101.72V138.054C1322.88 141.444 1323.15 143.908 1323.69 145.45C1324.25 146.981 1325.32 148.022 1326.9 148.575C1328.49 149.116 1331.03 149.387 1334.55 149.387C1334.77 149.387 1334.88 149.72 1334.88 150.387C1334.88 151.043 1334.77 151.366 1334.55 151.366C1330.93 151.366 1328.09 151.314 1326.01 151.2L1313.51 151.033L1301.51 151.2C1299.31 151.314 1296.35 151.366 1292.63 151.366C1292.3 151.366 1292.13 151.043 1292.13 150.387C1292.13 149.72 1292.3 149.387 1292.63 149.387C1296.13 149.387 1298.67 149.116 1300.26 148.575C1301.85 148.022 1302.95 146.95 1303.55 145.366C1304.16 143.783 1304.46 141.345 1304.46 138.054V61.9287C1304.46 58.637 1304.18 56.2308 1303.63 54.6995C1303.09 53.1579 1301.99 52.0902 1300.34 51.4912C1298.7 50.8818 1296.18 50.5745 1292.78 50.5745C1292.57 50.5745 1292.46 50.2516 1292.46 49.5954C1292.46 48.9443 1292.57 48.6162 1292.78 48.6162L1301.51 48.762C1306.55 48.986 1310.55 49.0954 1313.51 49.0954C1317.22 49.0954 1321.12 48.9391 1325.17 48.6162C1326.6 48.5068 1328.39 48.3975 1330.53 48.2829C1332.66 48.1735 1335.05 48.1162 1337.67 48.1162C1347.64 48.1162 1355.37 49.96 1360.84 53.637C1366.32 57.3037 1369.07 62.4235 1369.07 68.9912C1369.07 75.0225 1367.42 80.4808 1364.13 85.3662C1360.85 90.2412 1356.47 94.1579 1350.99 97.1162C1359.76 110.272 1367.11 120.575 1373.03 128.033C1378.94 135.481 1384.2 140.903 1388.8 144.304C1393.41 147.694 1397.91 149.387 1402.3 149.387ZM1322.88 97.1162C1325.51 97.5485 1328.68 97.762 1332.4 97.762C1338.76 97.762 1343.34 95.986 1346.13 92.4287C1348.93 88.861 1350.34 83.1318 1350.34 75.2412C1350.34 66.2568 1349.02 60.0693 1346.38 56.6787C1343.76 53.2777 1339.97 51.5745 1335.05 51.5745C1330.66 51.5745 1327.53 52.3975 1325.67 54.0329C1323.81 55.6735 1322.88 58.4183 1322.88 62.262V97.1162Z" fill="#1C3347"></path><path d="M1543.53 48.6162C1543.75 48.6162 1543.86 48.9443 1543.86 49.5954C1543.86 50.2516 1543.75 50.5745 1543.53 50.5745C1539.14 50.5745 1535.68 52.3037 1533.16 55.762C1530.64 59.21 1529.38 63.8402 1529.38 69.6579V153.825C1529.38 154.158 1529.13 154.377 1528.63 154.491C1528.15 154.601 1527.79 154.543 1527.57 154.325L1450.47 66.5329V130.491C1450.47 136.299 1451.67 140.903 1454.07 144.304C1456.49 147.694 1459.83 149.387 1464.11 149.387C1464.33 149.387 1464.45 149.72 1464.45 150.387C1464.45 151.043 1464.33 151.366 1464.11 151.366C1461.04 151.366 1458.69 151.314 1457.05 151.2L1448.18 151.033L1437.97 151.2C1436.1 151.314 1433.43 151.366 1429.93 151.366C1429.59 151.366 1429.43 151.043 1429.43 150.387C1429.43 149.72 1429.59 149.387 1429.93 149.387C1434.74 149.387 1438.55 147.694 1441.34 144.304C1444.13 140.903 1445.53 136.299 1445.53 130.491V60.9287C1441.92 56.986 1438.82 54.2777 1436.24 52.8037C1433.67 51.3193 1431.01 50.5745 1428.28 50.5745C1428.06 50.5745 1427.95 50.2516 1427.95 49.5954C1427.95 48.9443 1428.06 48.6162 1428.28 48.6162L1435.18 48.762C1436.6 48.8766 1438.69 48.9287 1441.43 48.9287L1453.93 48.762C1455.45 48.6683 1457.31 48.6162 1459.51 48.6162C1460.38 48.6162 1461.04 48.8402 1461.47 49.2829C1461.91 49.7152 1462.68 50.637 1463.78 52.0537C1465.64 54.585 1466.96 56.2829 1467.74 57.1579L1524.61 122.762V69.6579C1524.61 63.7412 1523.41 59.085 1520.99 55.6787C1518.58 52.2777 1515.24 50.5745 1510.97 50.5745C1510.76 50.5745 1510.66 50.2516 1510.66 49.5954C1510.66 48.9443 1510.76 48.6162 1510.97 48.6162L1518.05 48.762C1521.55 48.986 1524.51 49.0954 1526.93 49.0954C1529.12 49.0954 1532.19 48.986 1536.13 48.762L1543.53 48.6162Z" fill="#1C3347"></path></g><mask id="mask2_33_244" style="mask-type:luminance" maskUnits="userSpaceOnUse" x="1599" y="95" width="179" height="9"><path d="M1599 95H1777.95V104H1599V95Z" fill="white"></path></mask><g mask="url(#mask2_33_244)"><mask id="mask3_33_244" style="mask-type:luminance" maskUnits="userSpaceOnUse" x="1597" y="93" width="183" height="13"><path d="M1779.14 93.8838H1597.81V105.709H1779.14V93.8838Z" fill="white"></path></mask><g mask="url(#mask3_33_244)"><mask id="mask4_33_244" style="mask-type:luminance" maskUnits="userSpaceOnUse" x="1599" y="95" width="179" height="9"><path d="M1599 95H1777.95V104H1599V95Z" fill="white"></path></mask><g mask="url(#mask4_33_244)"><path d="M1599 95H1777.94V104H1599V95Z" fill="#B5613A"></path></g></g></g><mask id="mask5_33_244" style="mask-type:luminance" maskUnits="userSpaceOnUse" x="25" y="95" width="179" height="9"><path d="M25 95H203.948V104H25V95Z" fill="white"></path></mask><g mask="url(#mask5_33_244)"><mask id="mask6_33_244" style="mask-type:luminance" maskUnits="userSpaceOnUse" x="23" y="93" width="183" height="13"><path d="M205.141 93.8838H23.8076V105.709H205.141V93.8838Z" fill="white"></path></mask><g mask="url(#mask6_33_244)"><mask id="mask7_33_244" style="mask-type:luminance" maskUnits="userSpaceOnUse" x="25" y="95" width="179" height="9"><path d="M25 95H203.948V104H25V95Z" fill="white"></path></mask><g mask="url(#mask7_33_244)"><path d="M25 95H203.943V104H25V95Z" fill="#B5613A"></path></g></g></g></svg>